999
DXF created by Inkscape
  0
SECTION
  2
HEADER
  9
$ACADVER
  1
AC1014
  9
$HANDSEED
  5
FFFF
  9
$MEASUREMENT
 70
     1
  0
ENDSEC
  0
SECTION
  2
TABLES
  0
TABLE
  2
VPORT
  5
8
330
0
100
AcDbSymbolTable
 70
     4
  0
VPORT
  5
2E
330
8
100
AcDbSymbolTableRecord
100
AcDbViewportTableRecord
  2
*ACTIVE
 70
     0
 10
0.0
 20
0.0
 11
1.0
 21
1.0
 12
210.0
 22
148.5
 13
0.0
 23
0.0
 14
10.0
 24
10.0
 15
10.0
 25
10.0
 16
0.0
 26
0.0
 36
1.0
 17
0.0
 27
0.0
 37
0.0
 40
341.0
 41
1.24
 42
50.0
 43
0.0
 44
0.0
 50
0.0
 51
0.0
 71
     0
 72
   100
 73
     1
 74
     3
 75
     0
 76
     0
 77
     0
 78
     0
  0
ENDTAB
  0
TABLE
  2
LTYPE
  5
5
330
0
100
AcDbSymbolTable
 70
     1
  0
LTYPE
  5
14
330
5
100
AcDbSymbolTableRecord
100
AcDbLinetypeTableRecord
  2
BYBLOCK
 70
     0
  3

 72
    65
 73
     0
 40
0.0
  0
LTYPE
  5
15
330
5
100
AcDbSymbolTableRecord
100
AcDbLinetypeTableRecord
  2
BYLAYER
 70
     0
  3

 72
    65
 73
     0
 40
0.0
  0
LTYPE
  5
16
330
5
100
AcDbSymbolTableRecord
100
AcDbLinetypeTableRecord
  2
CONTINUOUS
 70
     0
  3
Solid line
 72
    65
 73
     0
 40
0.0
  0
ENDTAB
  0
TABLE
  2
LAYER
  5
2
100
AcDbSymbolTable
 70
3
  0
LAYER
  5
50
100
AcDbSymbolTableRecord
100
AcDbLayerTableRecord
  2
0
 70
0
  6
CONTINUOUS
  0
LAYER
  5
51
100
AcDbSymbolTableRecord
100
AcDbLayerTableRecord
  2
Base
 70
0
  6
CONTINUOUS
  0
LAYER
  5
52
100
AcDbSymbolTableRecord
100
AcDbLayerTableRecord
  2
Motors
 70
0
  6
CONTINUOUS
  0
ENDTAB
  0
TABLE
  2
STYLE
  5
3
330
0
100
AcDbSymbolTable
 70
     1
  0
STYLE
  5
11
330
3
100
AcDbSymbolTableRecord
100
AcDbTextStyleTableRecord
  2
STANDARD
 70
     0
 40
0.0
 41
1.0
 50
0.0
 71
     0
 42
2.5
  3
txt
  4

  0
ENDTAB
  0
TABLE
  2
VIEW
  5
6
330
0
100
AcDbSymbolTable
 70
     0
  0
ENDTAB
  0
TABLE
  2
UCS
  5
7
330
0
100
AcDbSymbolTable
 70
     0
  0
ENDTAB
  0
TABLE
  2
APPID
  5
9
330
0
100
AcDbSymbolTable
 70
     2
  0
APPID
  5
12
330
9
100
AcDbSymbolTableRecord
100
AcDbRegAppTableRecord
  2
ACAD
 70
     0
  0
ENDTAB
  0
TABLE
  2
DIMSTYLE
  5
A
330
0
100
AcDbSymbolTable
 70
     1
  0
DIMSTYLE
105
27
330
A
100
AcDbSymbolTableRecord
100
AcDbDimStyleTableRecord
  2
ISO-25
 70
     0
  3

  4

  5

  6

  7

 40
1.0
 41
2.5
 42
0.625
 43
3.75
 44
1.25
 45
0.0
 46
0.0
 47
0.0
 48
0.0
140
2.5
141
2.5
142
0.0
143
0.03937007874016
144
1.0
145
0.0
146
1.0
147
0.625
 71
     0
 72
     0
 73
     0
 74
     0
 75
     0
 76
     0
 77
     1
 78
     8
170
     0
171
     3
172
     1
173
     0
174
     0
175
     0
176
     0
177
     0
178
     0
270
     2
271
     2
272
     2
273
     2
274
     3
340
11
275
     0
280
     0
281
     0
282
     0
283
     0
284
     8
285
     0
286
     0
287
     3
288
     0
  0
ENDTAB
  0
TABLE
  2
BLOCK_RECORD
  5
1
330
0
100
AcDbSymbolTable
 70
     1
  0
BLOCK_RECORD
  5
1F
330
1
100
AcDbSymbolTableRecord
100
AcDbBlockTableRecord
  2
*MODEL_SPACE
  0
BLOCK_RECORD
  5
1B
330
1
100
AcDbSymbolTableRecord
100
AcDbBlockTableRecord
  2
*PAPER_SPACE
  0
ENDTAB
  0
ENDSEC
  0
SECTION
  2
BLOCKS
  0
BLOCK
  5
20
330
1F
100
AcDbEntity
  8
0
100
AcDbBlockBegin
  2
*MODEL_SPACE
 70
     0
 10
0.0
 20
0.0
 30
0.0
  3
*MODEL_SPACE
  1

  0
ENDBLK
  5
21
330
1F
100
AcDbEntity
  8
0
100
AcDbBlockEnd
  0
BLOCK
  5
1C
330
1B
100
AcDbEntity
 67
     1
  8
0
100
AcDbBlockBegin
  2
*PAPER_SPACE
  1

  0
ENDBLK
  5
1D
330
1B
100
AcDbEntity
 67
     1
  8
0
100
AcDbBlockEnd
  0
ENDSEC
  0
SECTION
  2
ENTITIES
  0
LWPOLYLINE
  5
100
100
AcDbEntity
  8
Base
 62
7
100
AcDbPolyline
 90
11
 70
0
 10
0.141111
 20
0.141112
 30
0.0
 10
0.141111
 20
115.141122
 30
0.0
 10
30.141110
 20
115.141122
 30
0.0
 10
30.141110
 20
85.141123
 30
0.0
 10
20.141111
 20
75.141123
 30
0.0
 10
15.141111
 20
60.141122
 30
0.0
 10
15.141111
 20
55.141124
 30
0.0
 10
20.141111
 20
40.141123
 30
0.0
 10
30.141110
 20
30.141123
 30
0.0
 10
30.141110
 20
0.141112
 30
0.0
 10
0.141111
 20
0.141112
 30
0.0
  0
LWPOLYLINE
  5
101
100
AcDbEntity
  8
Motors
 62
7
100
AcDbPolyline
 90
21
 70
0
 10
22.046383
 20
90.159452
 30
0.0
 10
18.953753
 20
88.737650
 30
0.0
 10
15.573123
 20
88.341111
 30
0.0
 10
12.235413
 20
89.008654
 30
0.0
 10
9.267344
 20
90.674934
 30
0.0
 10
6.959452
 20
93.176839
 30
0.0
 10
5.537651
 20
96.269473
 30
0.0
 10
5.141111
 20
99.650103
 30
0.0
 10
5.808652
 20
102.987809
 30
0.0
 10
7.474928
 20
105.955881
 30
0.0
 10
9.976840
 20
108.263773
 30
0.0
 10
13.069470
 20
109.685575
 30
0.0
 10
16.450103
 20
110.082114
 30
0.0
 10
19.787815
 20
109.414571
 30
0.0
 10
22.755882
 20
107.748297
 30
0.0
 10
25.063770
 20
105.246389
 30
0.0
 10
26.485575
 20
102.153752
 30
0.0
 10
26.882114
 20
98.773125
 30
0.0
 10
26.214568
 20
95.435413
 30
0.0
 10
24.548297
 20
92.467344
 30
0.0
 10
22.046383
 20
90.159452
 30
0.0
  0
LWPOLYLINE
  5
102
100
AcDbEntity
  8
Motors
 62
7
100
AcDbPolyline
 90
21
 70
0
 10
22.046386
 20
6.959460
 30
0.0
 10
18.953756
 20
5.537653
 30
0.0
 10
15.573123
 20
5.141131
 30
0.0
 10
12.235413
 20
5.808671
 30
0.0
 10
9.267344
 20
7.474939
 30
0.0
 10
6.959452
 20
9.976811
 30
0.0
 10
5.537651
 20
13.069458
 30
0.0
 10
5.141111
 20
16.450100
 30
0.0
 10
5.808652
 20
19.787806
 30
0.0
 10
7.474928
 20
22.755873
 30
0.0
 10
9.976843
 20
25.063765
 30
0.0
 10
13.069470
 20
26.485566
 30
0.0
 10
16.450106
 20
26.882108
 30
0.0
 10
19.787815
 20
26.214562
 30
0.0
 10
22.755882
 20
24.548291
 30
0.0
 10
25.063773
 20
22.046380
 30
0.0
 10
26.485575
 20
18.953749
 30
0.0
 10
26.882117
 20
15.573117
 30
0.0
 10
26.214573
 20
12.235407
 30
0.0
 10
24.548297
 20
9.267361
 30
0.0
 10
22.046386
 20
6.959460
 30
0.0
  0
ENDSEC
  0
SECTION
  2
OBJECTS
  0
DICTIONARY
  5
C
330
0
100
AcDbDictionary
  3
ACAD_GROUP
350
D
  3
ACAD_MLINESTYLE
350
17
  0
DICTIONARY
  5
D
330
C
100
AcDbDictionary
  0
DICTIONARY
  5
1A
330
C
100
AcDbDictionary
  0
DICTIONARY
  5
17
330
C
100
AcDbDictionary
  3
STANDARD
350
18
  0
DICTIONARY
  5
19
330
C
100
AcDbDictionary
  0
ENDSEC
  0
EOF
